<?xml version="1.0" encoding="UTF-8" standalone="no"?>
<svg
   xmlns:dc="http://purl.org/dc/elements/1.1/"
   xmlns:cc="http://creativecommons.org/ns#"
   xmlns:rdf="http://www.w3.org/1999/02/22-rdf-syntax-ns#"
   xmlns:svg="http://www.w3.org/2000/svg"
   xmlns="http://www.w3.org/2000/svg"
   xmlns:sodipodi="http://sodipodi.sourceforge.net/DTD/sodipodi-0.dtd"
   xmlns:inkscape="http://www.inkscape.org/namespaces/inkscape"
   version="1.1"
   width="24"
   height="24"
   viewBox="0 0 24 24"
   id="svg2"
   inkscape:version="0.91 r13725"
   sodipodi:docname="ic_bug_report.svg">
  <metadata
     id="metadata10">
    <rdf:RDF>
      <cc:Work
         rdf:about="">
        <dc:format>image/svg+xml</dc:format>
        <dc:type
           rdf:resource="http://purl.org/dc/dcmitype/StillImage" />
      </cc:Work>
    </rdf:RDF>
  </metadata>
  <defs
     id="defs8" />
  <sodipodi:namedview
     pagecolor="#ffffff"
     bordercolor="#666666"
     borderopacity="1"
     objecttolerance="10"
     gridtolerance="10"
     guidetolerance="10"
     inkscape:pageopacity="0"
     inkscape:pageshadow="2"
     inkscape:window-width="656"
     inkscape:window-height="480"
     id="namedview6"
     showgrid="false"
     inkscape:zoom="9.8333333"
     inkscape:cx="12"
     inkscape:cy="12"
     inkscape:window-x="0"
     inkscape:window-y="0"
     inkscape:window-maximized="0"
     inkscape:current-layer="svg2" />
  <path
     d="M14,12H10V10H14M14,16H10V14H14M20,8H17.19C16.74,7.22 16.12,6.55 15.37,6.04L17,4.41L15.59,3L13.42,5.17C12.96,5.06 12.5,5 12,5C11.5,5 11.04,5.06 10.59,5.17L8.41,3L7,4.41L8.62,6.04C7.88,6.55 7.26,7.22 6.81,8H4V10H6.09C6.04,10.33 6,10.66 6,11V12H4V14H6V15C6,15.34 6.04,15.67 6.09,16H4V18H6.81C7.85,19.79 9.78,21 12,21C14.22,21 16.15,19.79 17.19,18H20V16H17.91C17.96,15.67 18,15.34 18,15V14H20V12H18V11C18,10.66 17.96,10.33 17.91,10H20V8Z"
     id="path4"
     style="fill:#808080" />
</svg>
