<?xml version="1.0" encoding="UTF-8" standalone="no"?>
<svg
   xmlns:dc="http://purl.org/dc/elements/1.1/"
   xmlns:cc="http://creativecommons.org/ns#"
   xmlns:rdf="http://www.w3.org/1999/02/22-rdf-syntax-ns#"
   xmlns:svg="http://www.w3.org/2000/svg"
   xmlns="http://www.w3.org/2000/svg"
   xmlns:sodipodi="http://sodipodi.sourceforge.net/DTD/sodipodi-0.dtd"
   xmlns:inkscape="http://www.inkscape.org/namespaces/inkscape"
   version="1.1"
   width="24"
   height="24"
   viewBox="0 0 24 24"
   id="svg2"
   inkscape:version="0.92.2 (5c3e80d, 2017-08-06)"
   sodipodi:docname="ic_exodus.svg">
  <metadata
     id="metadata10">
    <rdf:RDF>
      <cc:Work
         rdf:about="">
        <dc:format>image/svg+xml</dc:format>
        <dc:type
           rdf:resource="http://purl.org/dc/dcmitype/StillImage" />
        <dc:title></dc:title>
      </cc:Work>
    </rdf:RDF>
  </metadata>
  <defs
     id="defs8" />
  <sodipodi:namedview
     pagecolor="#ffffff"
     bordercolor="#666666"
     borderopacity="1"
     objecttolerance="10"
     gridtolerance="10"
     guidetolerance="10"
     inkscape:pageopacity="0"
     inkscape:pageshadow="2"
     inkscape:window-width="1840"
     inkscape:window-height="1177"
     id="namedview6"
     showgrid="false"
     inkscape:zoom="6.9532167"
     inkscape:cx="56.371253"
     inkscape:cy="-4.3981069"
     inkscape:window-x="-8"
     inkscape:window-y="-8"
     inkscape:window-maximized="1"
     inkscape:current-layer="svg2" />
  <g
     style="display:inline"
     id="g5197"
     transform="matrix(0.05269799,0,0,0.05221246,6.9234851,15.762363)"
     inkscape:export-xdpi="96"
     inkscape:export-ydpi="96">
    <g
       id="g5671">
      <path
         style="fill:#808080;fill-opacity:1;stroke:none;stroke-width:0.22726357"
         d="M 97.146517,-260.60449 C -24.249384,-265.52847 -123.62519,-132.34792 -83.057226,-16.23205 -50.741722,102.56607 105.52558,156.29102 203.65441,83.706684 307.07592,18.947148 313.06218,-147.72081 214.40054,-219.73368 c -33.08653,-26.38546 -75.1032,-40.97071 -117.254023,-40.87081 z m 8.635203,67.1154 c 26.1818,0.30642 58.09785,4.13464 73.91586,27.99522 15.19739,23.55717 -24.01003,46.90474 -36.81119,21.84304 -7.90493,-16.16538 -18.98349,-35.12638 -39.28131,-35.4662 -23.818502,-2.85122 -46.872805,16.54483 -47.932474,40.83289 -3.051056,20.24238 4.312701,45.54183 26.159792,51.307337 19.291852,7.362505 39.541782,-2.453219 59.031922,1.591277 18.46051,15.825047 -14.53945,21.06743 -26.07219,15.537034 -22.573664,-5.294411 -52.679701,2.017918 -59.693466,27.218957 -8.114186,26.249241 -1.766813,62.224564 26.029902,73.614513 20.604344,8.676598 49.317304,3.299097 57.940954,-19.78424 4.75242,-16.1037166 13.00869,-40.326582 34.43716,-35.614634 18.49924,2.807852 22.72579,26.0743269 13.23619,39.811372 C 167.63652,43.151608 130.89116,50.177756 99.339828,49.463455 66.286243,48.18929 30.064492,36.801768 10.391916,8.3033546 -3.9038976,-13.751049 2.0136051,-45.855436 24.281942,-60.137021 33.992748,-69.371232 66.370856,-78.889732 60.950676,-79.97134 37.318079,-87.903845 11.9457,-107.24797 14.779864,-135.37853 c 1.543306,-32.75394 35.165035,-50.8826 63.683587,-55.75229 9.00513,-1.66185 18.169445,-2.35727 27.318269,-2.35827 z"
         id="path5128"
         inkscape:connector-curvature="0" />
    </g>
  </g>
</svg>
