<?xml version="1.0" encoding="UTF-8" standalone="no"?>
<!-- Generator: Adobe Illustrator 16.0.0, SVG Export Plug-In . SVG Version: 6.00 Build 0)  -->

<svg
   xmlns:dc="http://purl.org/dc/elements/1.1/"
   xmlns:cc="http://creativecommons.org/ns#"
   xmlns:rdf="http://www.w3.org/1999/02/22-rdf-syntax-ns#"
   xmlns:svg="http://www.w3.org/2000/svg"
   xmlns="http://www.w3.org/2000/svg"
   xmlns:sodipodi="http://sodipodi.sourceforge.net/DTD/sodipodi-0.dtd"
   xmlns:inkscape="http://www.inkscape.org/namespaces/inkscape"
   version="1.1"
   id="Layer_1"
   x="0px"
   y="0px"
   width="450"
   height="450"
   viewBox="0 0 450 450"
   enable-background="new 0 0 32 32"
   xml:space="preserve"
   inkscape:version="0.92.2 (5c3e80d, 2017-08-06)"
   sodipodi:docname="ic_launcher_borderless.svg"><metadata
     id="metadata3342"><rdf:RDF><cc:Work
         rdf:about=""><dc:format>image/svg+xml</dc:format><dc:type
           rdf:resource="http://purl.org/dc/dcmitype/StillImage" /><dc:title></dc:title></cc:Work></rdf:RDF></metadata><defs
     id="defs3340" /><sodipodi:namedview
     pagecolor="#ffffff"
     bordercolor="#666666"
     borderopacity="1"
     objecttolerance="10"
     gridtolerance="10"
     guidetolerance="10"
     inkscape:pageopacity="0"
     inkscape:pageshadow="2"
     inkscape:window-width="1840"
     inkscape:window-height="1177"
     id="namedview3338"
     showgrid="false"
     inkscape:zoom="0.67672329"
     inkscape:cx="-748.38423"
     inkscape:cy="111.90557"
     inkscape:window-x="-8"
     inkscape:window-y="-8"
     inkscape:window-maximized="1"
     inkscape:current-layer="Layer_1" /><g
     id="g4133"
     transform="translate(-40,0)"><path
       style="fill:#357ec7;fill-opacity:1"
       d="m 80.485938,240.14157 c 19.128587,10.54496 38.257172,21.08991 57.385762,31.63487 17.43246,-16.16052 34.86492,-32.32105 52.29738,-48.48157 -16.27446,-15.45504 -32.54891,-30.91008 -48.82337,-46.36512 -22.20093,12.54972 -44.861672,24.38331 -66.755347,37.41072 -11.422169,7.82107 -4.081944,21.07574 5.895575,25.8011 z M 370.69181,55.944003 c -14.99128,-1.707671 -26.66947,9.816835 -39.52502,15.726995 -56.74408,31.465482 -113.48817,62.930972 -170.23225,94.396452 13.9385,15.18791 27.877,30.37581 41.8155,45.56372 C 258.73063,159.73545 314.71122,107.83973 370.69181,55.944003 Z M 215.41596,225.43257 c 51.6331,56.26124 103.26619,112.52247 154.89929,168.78371 13.64679,-4.08633 10.60031,-20.64687 10.84299,-31.80458 -0.0833,-96.6103 0.16674,-193.22876 -0.12513,-289.833951 0.64725,-12.8472 -11.40889,-21.511815 -17.52451,-8.393482 C 314.14439,117.9337 264.78017,171.68314 215.41596,225.43257 Z m -54.31728,59.14497 c 64.5585,35.39855 128.81377,71.38517 193.56448,106.41094 11.13483,5.96416 19.4785,3.66396 7.5145,-4.36052 C 309.68718,336.78277 257.1967,286.93759 204.70622,237.0924 c -14.53585,15.82838 -29.07169,31.65676 -43.60754,47.48514 z"
       id="path3"
       inkscape:connector-curvature="0" /></g></svg>