<?xml version="1.0" encoding="UTF-8" standalone="no"?>
<!-- Generator: Adobe Illustrator 16.0.0, SVG Export Plug-In . SVG Version: 6.00 Build 0)  -->

<svg
   xmlns:dc="http://purl.org/dc/elements/1.1/"
   xmlns:cc="http://creativecommons.org/ns#"
   xmlns:rdf="http://www.w3.org/1999/02/22-rdf-syntax-ns#"
   xmlns:svg="http://www.w3.org/2000/svg"
   xmlns="http://www.w3.org/2000/svg"
   xmlns:sodipodi="http://sodipodi.sourceforge.net/DTD/sodipodi-0.dtd"
   xmlns:inkscape="http://www.inkscape.org/namespaces/inkscape"
   version="1.1"
   id="Layer_1"
   x="0px"
   y="0px"
   width="450"
   height="450"
   viewBox="0 0 450 450"
   enable-background="new 0 0 32 32"
   xml:space="preserve"
   inkscape:version="0.91 r13725"
   sodipodi:docname="ic_launcher_borderless.svg"><metadata
     id="metadata3342"><rdf:RDF><cc:Work
         rdf:about=""><dc:format>image/svg+xml</dc:format><dc:type
           rdf:resource="http://purl.org/dc/dcmitype/StillImage" /><dc:title /></cc:Work></rdf:RDF></metadata><defs
     id="defs3340" /><sodipodi:namedview
     pagecolor="#ffffff"
     bordercolor="#666666"
     borderopacity="1"
     objecttolerance="10"
     gridtolerance="10"
     guidetolerance="10"
     inkscape:pageopacity="0"
     inkscape:pageshadow="2"
     inkscape:window-width="1858"
     inkscape:window-height="1177"
     id="namedview3338"
     showgrid="false"
     inkscape:zoom="0.67672329"
     inkscape:cx="-518.6005"
     inkscape:cy="111.90557"
     inkscape:window-x="-8"
     inkscape:window-y="-8"
     inkscape:window-maximized="1"
     inkscape:current-layer="Layer_1" /><path
     inkscape:connector-curvature="0"
     style="opacity:1;fill:#ffffff;fill-opacity:1;fill-rule:evenodd;stroke:none;stroke-width:30;stroke-miterlimit:8;stroke-dasharray:none;stroke-opacity:1"
     d="M 225,4.822271 A 219.43977,220.17862 0 0 0 5.56055,225 219.43977,220.17862 0 0 0 225,445.17773 219.43977,220.17862 0 0 0 444.43945,225 219.43977,220.17862 0 0 0 225,4.822271 Z"
     id="path4166" /><path
     inkscape:connector-curvature="0"
     d="m 40.485938,240.14157 57.385762,31.63487 52.29738,-48.48157 -48.82337,-46.36512 -60.859772,33.74747 c 0,0 -11.79115,5.18494 -11.79115,13.75119 0,9.76351 11.79115,15.71316 11.79115,15.71316 z M 330.69181,55.944003 c -1.00802,-0.264557 -2.07591,-0.453803 -3.28669,-0.453803 -9.14751,0 -17.68672,5.893642 -17.68672,5.893642 L 120.93454,166.06745 162.75004,211.63117 330.69181,55.944003 Z M 175.41596,225.43257 330.31525,394.21628 c 13.02896,-2.61082 10.86423,-22.44682 10.84299,-24.42618 l 0,-294.656994 c 0,0 0.23945,-16.049175 -10.16325,-19.100274 L 175.41596,225.43257 Z m -54.31728,59.14497 186.65388,102.88963 c 0,0 11.90122,7.04263 19.58111,7.04263 1.03119,0 1.98321,-0.0927 2.86958,-0.2607 L 164.70622,237.0924 121.09868,284.57754 Z"
     id="path3"
     style="fill:#357ec7;fill-opacity:1" /></svg>