<?xml version="1.0" encoding="UTF-8" standalone="no"?>
<!-- Generator: Adobe Illustrator 16.0.0, SVG Export Plug-In . SVG Version: 6.00 Build 0)  -->

<svg
   xmlns:dc="http://purl.org/dc/elements/1.1/"
   xmlns:cc="http://creativecommons.org/ns#"
   xmlns:rdf="http://www.w3.org/1999/02/22-rdf-syntax-ns#"
   xmlns:svg="http://www.w3.org/2000/svg"
   xmlns="http://www.w3.org/2000/svg"
   xmlns:sodipodi="http://sodipodi.sourceforge.net/DTD/sodipodi-0.dtd"
   xmlns:inkscape="http://www.inkscape.org/namespaces/inkscape"
   version="1.1"
   id="Layer_1"
   x="0px"
   y="0px"
   width="450"
   height="450"
   viewBox="0 0 450 450"
   enable-background="new 0 0 32 32"
   xml:space="preserve"
   inkscape:version="0.91 r13725"
   sodipodi:docname="ic_notification_borderless.svg"><metadata
     id="metadata3342"><rdf:RDF><cc:Work
         rdf:about=""><dc:format>image/svg+xml</dc:format><dc:type
           rdf:resource="http://purl.org/dc/dcmitype/StillImage" /><dc:title></dc:title></cc:Work></rdf:RDF></metadata><defs
     id="defs3340" /><sodipodi:namedview
     pagecolor="#ffffff"
     bordercolor="#666666"
     borderopacity="1"
     objecttolerance="10"
     gridtolerance="10"
     guidetolerance="10"
     inkscape:pageopacity="0"
     inkscape:pageshadow="2"
     inkscape:window-width="1858"
     inkscape:window-height="1177"
     id="namedview3338"
     showgrid="false"
     inkscape:zoom="0.67672329"
     inkscape:cx="-518.6005"
     inkscape:cy="111.90557"
     inkscape:window-x="-8"
     inkscape:window-y="-8"
     inkscape:window-maximized="1"
     inkscape:current-layer="layer2" /><g
     inkscape:groupmode="layer"
     id="layer2"
     inkscape:label="Layer 1"><path
       style="opacity:1;fill:#ffffff;fill-opacity:1;fill-rule:evenodd;stroke:none;stroke-width:30;stroke-miterlimit:8;stroke-dasharray:none;stroke-opacity:1"
       d="M 225 4.8222656 A 219.43977 220.17862 0 0 0 5.5605469 225 A 219.43977 220.17862 0 0 0 225 445.17773 A 219.43977 220.17862 0 0 0 444.43945 225 A 219.43977 220.17862 0 0 0 225 4.8222656 z M 324.34961 68.125 C 325.46639 68.125 326.45111 68.300083 327.38086 68.544922 L 172.47656 212.62695 L 133.9082 170.45898 L 308.03516 73.578125 C 308.03516 73.578125 315.91231 68.125 324.34961 68.125 z M 327.66016 68.626953 C 337.2552 71.450642 337.0332 86.302734 337.0332 86.302734 L 337.0332 358.99805 C 337.05279 360.82988 339.05059 379.1873 327.0332 381.60352 L 184.16016 225.40039 L 327.66016 68.626953 z M 115.83984 180.51172 L 160.87305 223.42188 L 112.63672 268.28906 L 59.705078 239.01367 C 59.705078 239.01367 48.830078 233.50649 48.830078 224.4707 C 48.830078 216.54293 59.705078 211.74414 59.705078 211.74414 L 115.83984 180.51172 z M 174.28125 236.19141 L 326.92969 381.63477 C 326.11213 381.79024 325.23433 381.875 324.2832 381.875 C 317.19957 381.875 306.22266 375.35742 306.22266 375.35742 L 134.06055 280.13672 L 174.28125 236.19141 z "
       id="path4166" /></g></svg>