<?xml version="1.0" encoding="UTF-8" standalone="no"?>
<svg
   xmlns:dc="http://purl.org/dc/elements/1.1/"
   xmlns:cc="http://creativecommons.org/ns#"
   xmlns:rdf="http://www.w3.org/1999/02/22-rdf-syntax-ns#"
   xmlns:svg="http://www.w3.org/2000/svg"
   xmlns="http://www.w3.org/2000/svg"
   xmlns:sodipodi="http://sodipodi.sourceforge.net/DTD/sodipodi-0.dtd"
   xmlns:inkscape="http://www.inkscape.org/namespaces/inkscape"
   width="24px"
   height="24px"
   viewBox="0 0 24 24"
   version="1.1"
   id="svg12"
   sodipodi:docname="ic_wishlist_plus.svg"
   inkscape:version="0.92.2 (5c3e80d, 2017-08-06)">
  <metadata
     id="metadata16">
    <rdf:RDF>
      <cc:Work
         rdf:about="">
        <dc:format>image/svg+xml</dc:format>
        <dc:type
           rdf:resource="http://purl.org/dc/dcmitype/StillImage" />
        <dc:title>ic_wishlist_plus</dc:title>
      </cc:Work>
    </rdf:RDF>
  </metadata>
  <sodipodi:namedview
     pagecolor="#ffffff"
     bordercolor="#666666"
     borderopacity="1"
     objecttolerance="10"
     gridtolerance="10"
     guidetolerance="10"
     inkscape:pageopacity="0"
     inkscape:pageshadow="2"
     inkscape:window-width="686"
     inkscape:window-height="480"
     id="namedview14"
     showgrid="false"
     inkscape:zoom="9.8333333"
     inkscape:cx="12"
     inkscape:cy="12"
     inkscape:window-x="923"
     inkscape:window-y="173"
     inkscape:window-maximized="0"
     inkscape:current-layer="svg12" />
  <!-- Generator: Sketch 3.6 (26304) - http://www.bohemiancoding.com/sketch -->
  <title
     id="title2">ic_wishlist_plus</title>
  <desc
     id="desc4">Created with Sketch.</desc>
  <defs
     id="defs6" />
  <g
     id="Page-1"
     stroke="none"
     stroke-width="1"
     fill="none"
     fill-rule="evenodd"
     style="fill:#808080">
    <g
       id="ic_wishlist_add_24dp"
       fill="#000000"
       style="fill:#808080">
      <path
         d="M17,3 L7,3 C5.8965,3 5.01075,3.8955 5.01075,5 L5,21 L12,18 L19,21 L19,5 C19,3.8955 18.1045,3 17,3 L17,3 Z M17,18 L12,15.824 L7,18 L7,5 L17,5 L17,18 L17,18 Z"
         id="Fill-1"
         style="fill:#808080" />
      <path
         d="M13,9 L13,7 L11,7 L11,9 L9,9 L9,11 L11,11 L11,13 L13,13 L13,11 L15,11 L15,9 L13,9"
         id="Fill-2"
         style="fill:#808080" />
    </g>
  </g>
</svg>
